<svg width="280" height="280" viewBox="0 0 280 280" fill="none" xmlns="http://www.w3.org/2000/svg">
<path d="M93.4827 222.721C71.9463 222.721 52.0667 206.743 52.0667 176.118C52.0667 145.16 71.9463 129.514 93.4827 129.514C115.019 129.514 134.899 145.16 134.899 176.118C134.899 207.076 115.019 222.721 93.4827 222.721ZM93.4827 89.2355C44.7774 89.2355 8 125.52 8 176.118C8 226.383 44.7774 263 93.4827 263C142.188 263 178.965 226.383 178.965 176.118C178.965 125.52 142.188 89.2355 93.4827 89.2355Z" fill="#DE848B"/>
<path d="M241.643 258.007L272 17H227.933L197.577 258.007H241.643Z" fill="#DE848B"/>
<path d="M271.046 24.576L272 17H227.933L226.979 24.576H271.046Z" fill="#DE848B"/>
</svg>
