<svg width="573" height="875" viewBox="0 0 573 875" fill="none" xmlns="http://www.w3.org/2000/svg">
<path d="M122.491 172.752C131.995 137.282 145.172 107.02 162.023 81.9671C178.874 56.9137 198.793 37.7513 221.779 24.4799C245.554 11.4197 272.109 3.75074 301.443 1.47302C330.777 -0.804739 362.785 2.70284 397.466 11.9958C432.936 21.4999 463.092 35.0715 487.934 52.7105C512.988 69.5613 532.439 89.9797 546.287 113.966C561.135 137.375 569.592 164.141 571.659 194.263C574.725 223.808 571.611 255.922 562.318 290.603L451.753 703.237C442.249 738.707 428.678 768.863 411.039 793.705C394.399 817.971 373.692 836.922 348.918 850.559C325.143 863.619 298.088 871.577 267.755 874.431C237.633 876.498 204.837 872.779 169.367 863.275C134.685 853.982 105.212 841.016 80.9465 824.376C56.6814 807.737 37.519 787.818 23.4594 764.62C10.3992 740.845 2.83589 713.896 0.769343 683.774C-1.29719 653.652 2.42161 620.856 11.9258 585.386L122.491 172.752ZM339.429 214.406L220.31 658.963C219.465 662.116 218.726 664.875 218.093 667.24C218.247 669.816 218.113 671.892 217.691 673.468C218.057 675.256 218.528 676.649 219.105 677.649C220.47 678.859 221.547 679.57 222.335 679.782C223.912 680.204 225.2 680.127 226.199 679.55C227.198 678.973 227.909 677.896 228.332 676.319C229.543 674.954 230.465 673.089 231.098 670.725C232.52 668.571 233.654 665.918 234.498 662.765L353.617 218.208C354.673 214.267 355.124 211.009 354.969 208.433C355.603 206.068 355.631 204.386 355.054 203.387C355.476 201.81 355.399 200.522 354.822 199.523C354.245 198.523 353.168 197.812 351.592 197.39C350.803 197.179 349.516 197.256 347.728 197.622C346.728 198.199 345.624 199.17 344.413 200.535C344.202 201.324 343.385 202.794 341.963 204.948C341.33 207.313 340.485 210.465 339.429 214.406Z" fill="#DE848B"/>
</svg>
