<svg width="1306" height="1306" viewBox="0 0 1306 1306" fill="none" xmlns="http://www.w3.org/2000/svg">
<rect width="1306" height="1306" rx="100" fill="#F2F2F2"/>
<path d="M488.491 386.731C497.995 351.261 511.172 321 528.023 295.947C544.874 270.893 564.793 251.731 587.779 238.459C611.554 225.399 638.109 217.73 667.443 215.453C696.777 213.175 728.785 216.682 763.466 225.975C798.936 235.479 829.092 249.051 853.934 266.69C878.988 283.541 898.439 303.959 912.287 327.945C927.135 351.355 935.592 378.12 937.659 408.242C940.725 437.788 937.611 469.901 928.318 504.583L817.753 917.217C808.249 952.687 794.678 982.843 777.039 1007.68C760.399 1031.95 739.692 1050.9 714.918 1064.54C691.143 1077.6 664.088 1085.56 633.755 1088.41C603.633 1090.48 570.837 1086.76 535.367 1077.25C500.685 1067.96 471.212 1055 446.947 1038.36C422.681 1021.72 403.519 1001.8 389.459 978.599C376.399 954.824 368.836 927.876 366.769 897.754C364.703 867.631 368.422 834.835 377.926 799.365L488.491 386.731ZM697.119 428.386L578 872.943C577.155 876.096 576.634 878.135 576 880.5C576.155 883.076 576.021 885.152 575.598 886.728C575.964 888.516 576.436 889.91 577.013 890.909C578.378 892.12 587.547 893.55 588.335 893.761C589.912 894.183 596.601 896.131 597.601 895.554C598.6 894.976 599.311 893.9 599.734 892.323C600.944 890.958 601.866 889.093 602.5 886.728C603.922 884.575 604.655 879.898 605.5 876.745L724.619 432.188C725.675 428.247 726 425.5 726.5 422.5C727.134 420.135 727 418.5 726.5 416.5C726 414.5 722.5 413 721 412.5C720 412.167 719.168 411.792 717.592 411.37C716.803 411.158 708.788 409.134 707 409.5C706.001 410.077 705.711 410.236 704.5 411.601C704.289 412.39 702.422 414.847 701 417C700.366 419.365 698.175 424.445 697.119 428.386Z" fill="#DE848B"/>
</svg>
