<svg width="50" height="49" viewBox="0 0 50 49" fill="none" xmlns="http://www.w3.org/2000/svg">
<rect width="50" height="49" rx="10" fill="#FCF5FF"/>
<path d="M33.667 15.2497H30.2003C29.767 13.9497 28.5753 13.083 27.167 13.083C25.7587 13.083 24.567 13.9497 24.1337 15.2497H20.667C19.4753 15.2497 18.5003 16.2247 18.5003 17.4163V30.4163C18.5003 31.608 19.4753 32.583 20.667 32.583H33.667C34.8587 32.583 35.8337 31.608 35.8337 30.4163V17.4163C35.8337 16.2247 34.8587 15.2497 33.667 15.2497ZM27.167 15.2497C27.817 15.2497 28.2503 15.7913 28.2503 16.333C28.2503 16.8747 27.7087 17.4163 27.167 17.4163C26.6253 17.4163 26.0837 16.8747 26.0837 16.333C26.0837 15.7913 26.517 15.2497 27.167 15.2497ZM29.3337 27.1663H21.7503V24.9997H29.3337M32.5837 22.833H21.7503V20.6663H32.5837M16.3337 34.7497H31.5003V36.9163H16.3337C15.142 36.9163 14.167 35.9413 14.167 34.7497V19.583H16.3337" fill="#DE848B"/>
</svg>
