<svg width="50" height="49" viewBox="0 0 50 49" fill="none" xmlns="http://www.w3.org/2000/svg">
<rect width="50" height="49" rx="10" fill="#FCF5FF"/>
<path d="M25 33.6663C22.9888 33.6663 21.0599 32.8674 19.6378 31.4452C18.2156 30.0231 17.4167 28.0942 17.4167 26.083C17.4167 24.0718 18.2156 22.1429 19.6378 20.7208C21.0599 19.2986 22.9888 18.4997 25 18.4997C27.0112 18.4997 28.9401 19.2986 30.3622 20.7208C31.7844 22.1429 32.5833 24.0718 32.5833 26.083C32.5833 28.0942 31.7844 30.0231 30.3622 31.4452C28.9401 32.8674 27.0112 33.6663 25 33.6663ZM32.6158 20.0055L34.1542 18.4672C33.6667 17.9147 33.1792 17.4163 32.6267 16.9397L31.0883 18.4997C29.4092 17.1347 27.2967 16.333 25 16.333C22.4141 16.333 19.9342 17.3602 18.1057 19.1887C16.2772 21.0172 15.25 23.4971 15.25 26.083C15.25 28.6689 16.2772 31.1488 18.1057 32.9773C19.9342 34.8058 22.4141 35.833 25 35.833C30.4167 35.833 34.75 31.4672 34.75 26.083C34.75 23.7863 33.9483 21.6738 32.6158 20.0055ZM23.9167 27.1663H26.0833V20.6663H23.9167M28.25 13.083H21.75V15.2497H28.25V13.083Z" fill="#DE848B"/>
</svg>
