<svg width="104" height="50" viewBox="0 0 104 50" fill="none" xmlns="http://www.w3.org/2000/svg">
<path d="M13.9013 33.2616C10.399 33.2616 7.16617 30.6782 7.16617 25.7266C7.16617 20.7212 10.399 18.1916 13.9013 18.1916C17.4036 18.1916 20.6364 20.7212 20.6364 25.7266C20.6364 30.732 17.4036 33.2616 13.9013 33.2616ZM13.9013 11.6792C5.98079 11.6792 0 17.5458 0 25.7266C0 33.8536 5.98079 39.774 13.9013 39.774C21.8218 39.774 27.8026 33.8536 27.8026 25.7266C27.8026 17.5458 21.8218 11.6792 13.9013 11.6792Z" fill="white"/>
<path d="M37.9954 38.9666L42.932 0H35.7658L30.8292 38.9666H37.9954Z" fill="white"/>
<path d="M45.3341 40.4198C46.0884 45.479 50.9377 50 58.2117 50C68.1797 50 72.113 43.38 72.113 36.1141V12.4865H65.2162V15.6082C64.3002 13.8321 61.8756 12.0022 57.6729 12.0022C50.3989 12.0022 45.3341 17.9225 45.3341 24.9193C45.3341 32.3466 50.6144 37.7826 57.6729 37.7826C61.4984 37.7826 63.9769 36.1141 65.0545 34.3918V36.3294C65.0545 41.4424 62.5221 43.7029 57.9961 43.7029C54.6016 43.7029 52.2848 41.6039 51.7998 38.6975L45.3341 40.4198ZM58.9121 31.6469C55.1943 31.6469 52.5542 29.0635 52.5542 24.9193C52.5542 20.8289 55.356 18.2454 58.9121 18.2454C62.3605 18.2454 65.1623 20.8289 65.1623 24.9193C65.1623 29.0097 62.576 31.6469 58.9121 31.6469Z" fill="white"/>
<path d="M89.9953 33.2616C86.4931 33.2616 83.2602 30.6782 83.2602 25.7266C83.2602 20.7212 86.4931 18.1916 89.9953 18.1916C93.4976 18.1916 96.7305 20.7212 96.7305 25.7266C96.7305 30.732 93.4976 33.2616 89.9953 33.2616ZM89.9953 11.6792C82.0748 11.6792 76.094 17.5458 76.094 25.7266C76.094 33.8536 82.0748 39.774 89.9953 39.774C97.9158 39.774 103.897 33.8536 103.897 25.7266C103.897 17.5458 97.9158 11.6792 89.9953 11.6792Z" fill="white"/>
<path d="M99.3082 39.5599C99.3082 39.5599 99.3082 37.1718 99.3082 36.1141L100.423 26.2611L103.886 25.6156C104.026 25.6156 103.998 39.5599 103.998 39.5599H99.3082Z" fill="white"/>
</svg>
