<svg width="48" height="25" viewBox="0 0 48 25" fill="none" xmlns="http://www.w3.org/2000/svg">
<rect x="0.121094" y="0.577637" width="47.5708" height="23.7854" rx="11.8927" fill="#F4EBEA"/>
<path d="M14.4211 17.5415C14.3286 17.5415 14.25 17.5091 14.1852 17.4444C14.1205 17.3796 14.0881 17.301 14.0881 17.2085V8.17599C14.0881 8.07425 14.1205 7.991 14.1852 7.92625C14.25 7.8615 14.3286 7.82912 14.4211 7.82912H18.1395C18.861 7.82912 19.49 7.94475 20.0265 8.17599C20.563 8.39799 20.9793 8.74024 21.2753 9.20273C21.5713 9.65598 21.7193 10.2248 21.7193 10.9093C21.7193 11.6031 21.5713 12.1766 21.2753 12.6298C20.9793 13.0738 20.563 13.4068 20.0265 13.6288C19.49 13.8508 18.861 13.9618 18.1395 13.9618H16.0722V17.2085C16.0722 17.301 16.0398 17.3796 15.9751 17.4444C15.9196 17.5091 15.8409 17.5415 15.7392 17.5415H14.4211ZM16.0444 12.4217H18.0702C18.6067 12.4217 19.0183 12.2968 19.305 12.0471C19.5918 11.7881 19.7352 11.4088 19.7352 10.9093C19.7352 10.4468 19.601 10.0768 19.3328 9.79935C19.0645 9.5126 18.6437 9.36923 18.0702 9.36923H16.0444V12.4217ZM23.2619 17.5415C23.1694 17.5415 23.0907 17.5091 23.026 17.4444C22.9612 17.3796 22.9289 17.301 22.9289 17.2085V10.6735C22.9289 10.5717 22.9612 10.4885 23.026 10.4237C23.0907 10.359 23.1694 10.3266 23.2619 10.3266H24.3857C24.4782 10.3266 24.5568 10.359 24.6216 10.4237C24.6956 10.4885 24.7326 10.5717 24.7326 10.6735V11.2423C24.9453 10.9463 25.2182 10.7197 25.5512 10.5625C25.8934 10.4052 26.2866 10.3266 26.7306 10.3266H27.2994C27.4012 10.3266 27.4798 10.359 27.5353 10.4237C27.6 10.4885 27.6324 10.5671 27.6324 10.6596V11.6586C27.6324 11.7511 27.6 11.8297 27.5353 11.8944C27.4798 11.9592 27.4012 11.9916 27.2994 11.9916H26.2172C25.7732 11.9916 25.4263 12.1164 25.1766 12.3662C24.9361 12.6159 24.8158 12.9582 24.8158 13.3929V17.2085C24.8158 17.301 24.7835 17.3796 24.7187 17.4444C24.654 17.5091 24.5707 17.5415 24.469 17.5415H23.2619ZM31.6722 17.6803C30.9322 17.6803 30.3078 17.5508 29.7991 17.2918C29.2996 17.0328 28.9157 16.6674 28.6475 16.1956C28.3885 15.7239 28.2405 15.1735 28.2035 14.5445C28.1942 14.378 28.1896 14.1745 28.1896 13.934C28.1896 13.6936 28.1942 13.4901 28.2035 13.3236C28.2405 12.6853 28.3931 12.1349 28.6613 11.6725C28.9388 11.2007 29.3273 10.8353 29.8268 10.5763C30.3356 10.3173 30.9507 10.1878 31.6722 10.1878C32.3937 10.1878 33.0041 10.3173 33.5036 10.5763C34.0124 10.8353 34.4009 11.2007 34.6691 11.6725C34.9466 12.1349 35.1039 12.6853 35.1409 13.3236C35.1501 13.4901 35.1547 13.6936 35.1547 13.934C35.1547 14.1745 35.1501 14.378 35.1409 14.5445C35.1039 15.1735 34.9512 15.7239 34.683 16.1956C34.424 16.6674 34.0401 17.0328 33.5314 17.2918C33.0319 17.5508 32.4122 17.6803 31.6722 17.6803ZM31.6722 16.3066C32.1624 16.3066 32.5417 16.154 32.8099 15.8488C33.0781 15.5343 33.2261 15.0764 33.2539 14.4752C33.2631 14.3364 33.2678 14.156 33.2678 13.934C33.2678 13.7121 33.2631 13.5317 33.2539 13.3929C33.2261 12.8009 33.0781 12.3477 32.8099 12.0332C32.5417 11.7187 32.1624 11.5615 31.6722 11.5615C31.1819 11.5615 30.8027 11.7187 30.5344 12.0332C30.2662 12.3477 30.1182 12.8009 30.0904 13.3929C30.0812 13.5317 30.0766 13.7121 30.0766 13.934C30.0766 14.156 30.0812 14.3364 30.0904 14.4752C30.1182 15.0764 30.2662 15.5343 30.5344 15.8488C30.8027 16.154 31.1819 16.3066 31.6722 16.3066Z" fill="#DE848B"/>
</svg>
