<svg width="939" height="119" viewBox="0 0 939 119" fill="none" xmlns="http://www.w3.org/2000/svg">
<path d="M27.7 94C27.0333 94 26.4333 93.7667 25.9 93.3C25.4333 92.8333 25.2 92.2333 25.2 91.5V43.9L11.5 54.4C10.9 54.8667 10.2667 55.0333 9.6 54.9C9 54.7667 8.46667 54.4 8 53.8L2.1 46.1C1.7 45.5 1.53333 44.8667 1.6 44.2C1.73333 43.4667 2.13333 42.9 2.8 42.5L25.8 24.7C26.2 24.4333 26.5667 24.2667 26.9 24.2C27.3 24.0667 27.7333 24 28.2 24H40.7C41.3667 24 41.9333 24.2333 42.4 24.7C42.9333 25.1667 43.2 25.7667 43.2 26.5V91.5C43.2 92.2333 42.9333 92.8333 42.4 93.3C41.9333 93.7667 41.3667 94 40.7 94H27.7Z" fill="white"/>
<path d="M447.7 94C446.967 94 446.333 93.7667 445.8 93.3C445.333 92.8333 445.1 92.2333 445.1 91.5V84.4C445.1 83.9333 445.233 83.2333 445.5 82.3C445.767 81.3 446.467 80.3667 447.6 79.5L458 69.3C463.333 65.2333 467.7 61.8 471.1 59C474.567 56.1333 477.133 53.6 478.8 51.4C480.467 49.2 481.3 47.1333 481.3 45.2C481.3 42.9333 480.7 41.0667 479.5 39.6C478.367 38.0667 476.367 37.3 473.5 37.3C471.567 37.3 469.933 37.7333 468.6 38.6C467.333 39.4 466.367 40.4667 465.7 41.8C465.033 43.1333 464.567 44.5 464.3 45.9C464.033 46.7667 463.567 47.3667 462.9 47.7C462.3 48.0333 461.633 48.2 460.9 48.2H448.4C447.8 48.2 447.3 48 446.9 47.6C446.5 47.2 446.3 46.7 446.3 46.1C446.367 42.9 447.033 39.9 448.3 37.1C449.633 34.3 451.467 31.8333 453.8 29.7C456.2 27.5 459.033 25.8 462.3 24.6C465.633 23.4 469.367 22.8 473.5 22.8C479.167 22.8 483.967 23.7 487.9 25.5C491.9 27.3 494.933 29.8333 497 33.1C499.067 36.3 500.1 40.0667 500.1 44.4C500.1 47.6667 499.367 50.7333 497.9 53.6C496.5 56.4 494.467 59.1 491.8 61.7C489.2 64.2333 486.1 66.8667 482.5 69.6L473.3 78.9H499C499.733 78.9 500.333 79.1333 500.8 79.6C501.333 80.0667 501.6 80.6667 501.6 81.4V91.5C501.6 92.2333 501.333 92.8333 500.8 93.3C500.333 93.7667 499.733 94 499 94H447.7Z" fill="white"/>
<path d="M905.5 95C900.3 95 895.867 94.4 892.2 93.2C888.533 91.9333 885.533 90.3333 883.2 88.4C880.867 86.4 879.133 84.3 878 82.1C876.867 79.8333 876.267 77.6667 876.2 75.6C876.2 75 876.4 74.5 876.8 74.1C877.267 73.7 877.8 73.5 878.4 73.5H891.4C892.2 73.5 892.833 73.6667 893.3 74C893.767 74.2667 894.2 74.7333 894.6 75.4C895.133 76.6667 895.9 77.7 896.9 78.5C897.967 79.3 899.233 79.8667 900.7 80.2C902.167 80.4667 903.767 80.6 905.5 80.6C908.9 80.6 911.533 79.8333 913.4 78.3C915.333 76.7 916.3 74.5333 916.3 71.8C916.3 68.9333 915.4 66.9 913.6 65.7C911.8 64.4333 909.233 63.8 905.9 63.8H894.8C894.067 63.8 893.467 63.5667 893 63.1C892.533 62.6333 892.3 62.0333 892.3 61.3V55.7C892.3 54.9 892.467 54.2 892.8 53.6C893.133 53 893.5 52.5667 893.9 52.3L910.3 38.4H882.5C881.833 38.4 881.233 38.1667 880.7 37.7C880.233 37.2333 880 36.6333 880 35.9V26.5C880 25.7667 880.233 25.1667 880.7 24.7C881.233 24.2333 881.833 24 882.5 24H928.5C929.233 24 929.833 24.2333 930.3 24.7C930.833 25.1667 931.1 25.7667 931.1 26.5V35C931.1 35.7333 930.933 36.4 930.6 37C930.267 37.5333 929.9 37.9667 929.5 38.3L914.3 52.4L915 52.6C918.8 53.0667 922.2 54.1 925.2 55.7C928.2 57.2333 930.567 59.4 932.3 62.2C934.033 65 934.9 68.5667 934.9 72.9C934.9 77.4333 933.6 81.3667 931 84.7C928.467 87.9667 925 90.5 920.6 92.3C916.2 94.1 911.167 95 905.5 95Z" fill="white"/>
<path d="M121.906 54.1951C121.462 54.523 121.367 55.1491 121.695 55.5935C122.023 56.0379 122.649 56.1324 123.094 55.8045L121.906 54.1951ZM354.5 55.9998C355.052 55.9998 355.5 55.5521 355.5 54.9998V45.9998C355.5 45.4475 355.052 44.9998 354.5 44.9998C353.948 44.9998 353.5 45.4475 353.5 45.9998V53.9998H345.5C344.948 53.9998 344.5 54.4475 344.5 54.9998C344.5 55.5521 344.948 55.9998 345.5 55.9998H354.5ZM123.094 55.8045C145.238 39.4656 183.383 19.8472 225.771 14.1283C268.124 8.41417 314.662 16.5756 353.793 55.7069L355.207 54.2927C315.538 14.6239 268.326 6.36874 225.504 12.1463C182.717 17.9191 144.262 37.7007 121.906 54.1951L123.094 55.8045Z" fill="white"/>
<path d="M575.406 54.1951C574.962 54.523 574.867 55.1491 575.195 55.5935C575.523 56.0379 576.149 56.1324 576.594 55.8045L575.406 54.1951ZM808 55.9998C808.552 55.9998 809 55.5521 809 54.9998V45.9998C809 45.4475 808.552 44.9998 808 44.9998C807.448 44.9998 807 45.4475 807 45.9998V53.9998H799C798.448 53.9998 798 54.4475 798 54.9998C798 55.5521 798.448 55.9998 799 55.9998H808ZM576.594 55.8045C598.738 39.4656 636.883 19.8472 679.271 14.1283C721.624 8.41417 768.162 16.5756 807.293 55.7069L808.707 54.2927C769.038 14.6239 721.826 6.36874 679.004 12.1463C636.217 17.9191 597.762 37.7007 575.406 54.1951L576.594 55.8045Z" fill="white"/>
</svg>
