<svg width="235" height="46" viewBox="0 0 235 46" fill="none" xmlns="http://www.w3.org/2000/svg">
<path d="M0.906287 44.1951C0.461876 44.523 0.367424 45.1491 0.695323 45.5935C1.02322 46.0379 1.6493 46.1324 2.09371 45.8045L0.906287 44.1951ZM233.5 45.9998C234.052 45.9998 234.5 45.5521 234.5 44.9998V35.9998C234.5 35.4475 234.052 34.9998 233.5 34.9998C232.948 34.9998 232.5 35.4475 232.5 35.9998V43.9998H224.5C223.948 43.9998 223.5 44.4475 223.5 44.9998C223.5 45.5521 223.948 45.9998 224.5 45.9998H233.5ZM2.09371 45.8045C24.2383 29.4656 62.3835 9.84719 104.771 4.12831C147.124 -1.58583 193.662 6.57563 232.793 45.7069L234.207 44.2927C194.538 4.62394 147.326 -3.63126 104.504 2.14627C61.7165 7.91906 23.2617 27.7007 0.906287 44.1951L2.09371 45.8045Z" fill="white"/>
</svg>
