<svg width="50" height="49" viewBox="0 0 50 49" fill="none" xmlns="http://www.w3.org/2000/svg">
<rect width="50" height="49" rx="10" fill="#FCF5FF"/>
<path d="M17.4163 18.5H36.9163V31.5H17.4163V18.5ZM27.1663 21.75C28.0283 21.75 28.8549 22.0924 29.4644 22.7019C30.0739 23.3114 30.4163 24.138 30.4163 25C30.4163 25.862 30.0739 26.6886 29.4644 27.2981C28.8549 27.9076 28.0283 28.25 27.1663 28.25C26.3044 28.25 25.4777 27.9076 24.8682 27.2981C24.2587 26.6886 23.9163 25.862 23.9163 25C23.9163 24.138 24.2587 23.3114 24.8682 22.7019C25.4777 22.0924 26.3044 21.75 27.1663 21.75ZM21.7497 20.6667C21.7497 21.2413 21.5214 21.7924 21.1151 22.1987C20.7087 22.6051 20.1576 22.8333 19.583 22.8333V27.1667C20.1576 27.1667 20.7087 27.3949 21.1151 27.8013C21.5214 28.2076 21.7497 28.7587 21.7497 29.3333H32.583C32.583 28.7587 32.8113 28.2076 33.2176 27.8013C33.6239 27.3949 34.175 27.1667 34.7497 27.1667V22.8333C34.175 22.8333 33.6239 22.6051 33.2176 22.1987C32.8113 21.7924 32.583 21.2413 32.583 20.6667H21.7497ZM13.083 22.8333H15.2497V33.6667H32.583V35.8333H13.083V22.8333Z" fill="#DE848B"/>
</svg>
