<svg width="49" height="25" viewBox="0 0 49 25" fill="none" xmlns="http://www.w3.org/2000/svg">
<rect x="0.858398" y="0.577637" width="47.5708" height="23.7854" rx="11.8927" fill="#F4EBEA"/>
<path d="M11.1926 17.5415C11.1001 17.5415 11.0215 17.5091 10.9567 17.4444C10.892 17.3796 10.8596 17.301 10.8596 17.2085V8.17599C10.8596 8.07425 10.892 7.991 10.9567 7.92625C11.0215 7.8615 11.1001 7.82912 11.1926 7.82912H17.2975C17.3993 7.82912 17.4825 7.8615 17.5472 7.92625C17.612 7.991 17.6444 8.07425 17.6444 8.17599V9.09173C17.6444 9.18423 17.612 9.26286 17.5472 9.32761C17.4825 9.39235 17.3993 9.42473 17.2975 9.42473H12.7327V11.8806H16.9923C17.094 11.8806 17.1773 11.9129 17.242 11.9777C17.3068 12.0332 17.3391 12.1118 17.3391 12.2136V13.0738C17.3391 13.1756 17.3068 13.2588 17.242 13.3236C17.1773 13.3791 17.094 13.4068 16.9923 13.4068H12.7327V15.9459H17.4085C17.5102 15.9459 17.5935 15.9783 17.6582 16.043C17.723 16.1078 17.7554 16.191 17.7554 16.2928V17.2085C17.7554 17.301 17.723 17.3796 17.6582 17.4444C17.5935 17.5091 17.5102 17.5415 17.4085 17.5415H11.1926ZM19.5323 17.5415C19.4398 17.5415 19.3612 17.5091 19.2965 17.4444C19.2317 17.3796 19.1993 17.301 19.1993 17.2085V8.02337C19.1993 7.93087 19.2317 7.85225 19.2965 7.7875C19.3612 7.72275 19.4398 7.69038 19.5323 7.69038H20.6839C20.7764 7.69038 20.8551 7.72275 20.9198 7.7875C20.9846 7.85225 21.0169 7.93087 21.0169 8.02337V17.2085C21.0169 17.301 20.9846 17.3796 20.9198 17.4444C20.8551 17.5091 20.7764 17.5415 20.6839 17.5415H19.5323ZM23.3497 17.5415C23.2572 17.5415 23.1786 17.5091 23.1139 17.4444C23.0491 17.3796 23.0167 17.301 23.0167 17.2085V10.6596C23.0167 10.5671 23.0491 10.4885 23.1139 10.4237C23.1786 10.359 23.2572 10.3266 23.3497 10.3266H24.5014C24.6031 10.3266 24.6817 10.359 24.7372 10.4237C24.802 10.4885 24.8344 10.5671 24.8344 10.6596V17.2085C24.8344 17.301 24.802 17.3796 24.7372 17.4444C24.6817 17.5091 24.6031 17.5415 24.5014 17.5415H23.3497ZM23.2942 9.13336C23.1925 9.13336 23.1092 9.10561 23.0445 9.05011C22.989 8.98536 22.9612 8.90211 22.9612 8.80036V7.80137C22.9612 7.70888 22.989 7.63025 23.0445 7.5655C23.1092 7.50075 23.1925 7.46838 23.2942 7.46838H24.5569C24.6586 7.46838 24.7419 7.50075 24.8066 7.5655C24.8714 7.63025 24.9037 7.70888 24.9037 7.80137V8.80036C24.9037 8.90211 24.8714 8.98536 24.8066 9.05011C24.7419 9.10561 24.6586 9.13336 24.5569 9.13336H23.2942ZM29.797 17.5415C29.242 17.5415 28.7749 17.4444 28.3956 17.2501C28.0164 17.0559 27.7343 16.7691 27.5493 16.3899C27.3643 16.0014 27.2718 15.5204 27.2718 14.9469V11.7973H26.1757C26.0832 11.7973 26.0045 11.7649 25.9398 11.7002C25.875 11.6355 25.8427 11.5568 25.8427 11.4643V10.6596C25.8427 10.5671 25.875 10.4885 25.9398 10.4237C26.0045 10.359 26.0832 10.3266 26.1757 10.3266H27.2718V8.02337C27.2718 7.93087 27.2995 7.85225 27.355 7.7875C27.4198 7.72275 27.503 7.69038 27.6048 7.69038H28.7286C28.8211 7.69038 28.8997 7.72275 28.9645 7.7875C29.0292 7.85225 29.0616 7.93087 29.0616 8.02337V10.3266H30.796C30.8885 10.3266 30.9671 10.359 31.0318 10.4237C31.0966 10.4885 31.129 10.5671 31.129 10.6596V11.4643C31.129 11.5568 31.0966 11.6355 31.0318 11.7002C30.9671 11.7649 30.8885 11.7973 30.796 11.7973H29.0616V14.8082C29.0616 15.1874 29.1264 15.4834 29.2559 15.6962C29.3946 15.9089 29.6305 16.0153 29.9635 16.0153H30.9208C31.0133 16.0153 31.092 16.0476 31.1567 16.1124C31.2215 16.1771 31.2538 16.2558 31.2538 16.3483V17.2085C31.2538 17.301 31.2215 17.3796 31.1567 17.4444C31.092 17.5091 31.0133 17.5415 30.9208 17.5415H29.797ZM35.4539 17.6803C34.4272 17.6803 33.6132 17.3843 33.0119 16.7923C32.4107 16.2003 32.0869 15.3585 32.0407 14.267C32.0314 14.1745 32.0268 14.0589 32.0268 13.9202C32.0268 13.7722 32.0314 13.6566 32.0407 13.5733C32.0777 12.8796 32.2349 12.2783 32.5124 11.7696C32.7992 11.2608 33.1923 10.8723 33.6918 10.6041C34.1913 10.3266 34.7787 10.1878 35.4539 10.1878C36.2031 10.1878 36.8321 10.3451 37.3409 10.6596C37.8496 10.9648 38.2335 11.395 38.4925 11.9499C38.7515 12.4957 38.881 13.1293 38.881 13.8508V14.1422C38.881 14.2347 38.8486 14.3133 38.7839 14.378C38.7191 14.4428 38.6359 14.4752 38.5341 14.4752H33.9277C33.9277 14.4752 33.9277 14.489 33.9277 14.5168C33.9277 14.5445 33.9277 14.5677 33.9277 14.5862C33.9369 14.9099 33.997 15.2105 34.108 15.488C34.2283 15.7563 34.3994 15.9736 34.6214 16.1401C34.8527 16.3066 35.1255 16.3899 35.44 16.3899C35.699 16.3899 35.9164 16.3529 36.0921 16.2789C36.2679 16.1956 36.4113 16.1031 36.5223 16.0014C36.6333 15.8996 36.7119 15.8164 36.7581 15.7517C36.8414 15.6407 36.9061 15.5759 36.9524 15.5574C37.0079 15.5297 37.0865 15.5158 37.1883 15.5158H38.3815C38.474 15.5158 38.548 15.5435 38.6035 15.599C38.6682 15.6545 38.696 15.7239 38.6867 15.8072C38.6775 15.9551 38.5989 16.1355 38.4509 16.3483C38.3121 16.561 38.1086 16.7691 37.8404 16.9726C37.5721 17.1761 37.2345 17.3473 36.8275 17.486C36.4298 17.6155 35.9719 17.6803 35.4539 17.6803ZM33.9277 13.3097H36.994V13.2681C36.994 12.9073 36.9339 12.5928 36.8136 12.3246C36.6934 12.0563 36.5176 11.8436 36.2864 11.6863C36.0551 11.5291 35.7777 11.4505 35.4539 11.4505C35.1302 11.4505 34.8527 11.5291 34.6214 11.6863C34.3902 11.8436 34.2144 12.0563 34.0942 12.3246C33.9832 12.5928 33.9277 12.9073 33.9277 13.2681V13.3097Z" fill="#1C2E3D"/>
</svg>
