<svg width="50" height="49" viewBox="0 0 50 49" fill="none" xmlns="http://www.w3.org/2000/svg">
<rect width="50" height="49" rx="10" fill="#FCF5FF"/>
<path d="M25.5 21.1136C24.5959 21.1136 23.7287 21.4728 23.0894 22.1121C22.4501 22.7515 22.0909 23.6186 22.0909 24.5227C22.0909 25.4269 22.4501 26.294 23.0894 26.9333C23.7287 27.5726 24.5959 27.9318 25.5 27.9318C26.4041 27.9318 27.2713 27.5726 27.9106 26.9333C28.5499 26.294 28.9091 25.4269 28.9091 24.5227C28.9091 23.6186 28.5499 22.7515 27.9106 22.1121C27.2713 21.4728 26.4041 21.1136 25.5 21.1136ZM25.5 30.2045C23.9931 30.2045 22.5479 29.6059 21.4823 28.5404C20.4168 27.4748 19.8182 26.0296 19.8182 24.5227C19.8182 23.0158 20.4168 21.5706 21.4823 20.5051C22.5479 19.4395 23.9931 18.8409 25.5 18.8409C27.0069 18.8409 28.4521 19.4395 29.5177 20.5051C30.5832 21.5706 31.1818 23.0158 31.1818 24.5227C31.1818 26.0296 30.5832 27.4748 29.5177 28.5404C28.4521 29.6059 27.0069 30.2045 25.5 30.2045ZM25.5 16C19.8182 16 14.9659 19.5341 13 24.5227C14.9659 29.5114 19.8182 33.0455 25.5 33.0455C31.1818 33.0455 36.0341 29.5114 38 24.5227C36.0341 19.5341 31.1818 16 25.5 16Z" fill="#DE848B"/>
</svg>
