<svg width="49" height="25" viewBox="0 0 49 25" fill="none" xmlns="http://www.w3.org/2000/svg">
<rect x="0.59668" y="0.577637" width="47.5708" height="23.7854" rx="11.8927" fill="#F4EBEA"/>
<path d="M10.9309 16.5513C10.8384 16.5513 10.7597 16.5189 10.695 16.4541C10.6302 16.3894 10.5979 16.3108 10.5979 16.2183V7.18576C10.5979 7.08401 10.6302 7.00076 10.695 6.93601C10.7597 6.87126 10.8384 6.83889 10.9309 6.83889H16.9525C17.0543 6.83889 17.1375 6.87126 17.2023 6.93601C17.267 7.00076 17.2994 7.08401 17.2994 7.18576V8.157C17.2994 8.25875 17.267 8.342 17.2023 8.40675C17.1375 8.46224 17.0543 8.48999 16.9525 8.48999H12.4987V11.1262H16.675C16.7768 11.1262 16.86 11.1586 16.9248 11.2233C16.9895 11.2881 17.0219 11.3713 17.0219 11.4731V12.4443C17.0219 12.5368 16.9895 12.6154 16.9248 12.6802C16.86 12.7449 16.7768 12.7773 16.675 12.7773H12.4987V16.2183C12.4987 16.3108 12.4663 16.3894 12.4016 16.4541C12.3368 16.5189 12.2536 16.5513 12.1518 16.5513H10.9309ZM18.8096 16.5513C18.7171 16.5513 18.6385 16.5189 18.5737 16.4541C18.509 16.3894 18.4766 16.3108 18.4766 16.2183V9.68323C18.4766 9.58148 18.509 9.49823 18.5737 9.43348C18.6385 9.36873 18.7171 9.33636 18.8096 9.33636H19.9335C20.026 9.33636 20.1046 9.36873 20.1693 9.43348C20.2433 9.49823 20.2803 9.58148 20.2803 9.68323V10.2521C20.4931 9.9561 20.7659 9.72948 21.0989 9.57223C21.4412 9.41498 21.8343 9.33636 22.2783 9.33636H22.8472C22.9489 9.33636 23.0275 9.36873 23.083 9.43348C23.1478 9.49823 23.1802 9.57686 23.1802 9.66935V10.6683C23.1802 10.7608 23.1478 10.8395 23.083 10.9042C23.0275 10.969 22.9489 11.0013 22.8472 11.0013H21.7649C21.3209 11.0013 20.9741 11.1262 20.7243 11.376C20.4838 11.6257 20.3636 11.968 20.3636 12.4027V16.2183C20.3636 16.3108 20.3312 16.3894 20.2664 16.4541C20.2017 16.5189 20.1185 16.5513 20.0167 16.5513H18.8096ZM27.1367 16.69C26.1099 16.69 25.2959 16.394 24.6947 15.802C24.0934 15.21 23.7697 14.3683 23.7234 13.2768C23.7142 13.1843 23.7096 13.0687 23.7096 12.9299C23.7096 12.7819 23.7142 12.6663 23.7234 12.5831C23.7604 11.8893 23.9177 11.2881 24.1952 10.7793C24.4819 10.2706 24.8751 9.8821 25.3746 9.61386C25.874 9.33636 26.4614 9.19761 27.1367 9.19761C27.8859 9.19761 28.5149 9.35486 29.0236 9.66935C29.5324 9.9746 29.9162 10.4047 30.1752 10.9597C30.4342 11.5055 30.5637 12.1391 30.5637 12.8606V13.1519C30.5637 13.2444 30.5314 13.3231 30.4666 13.3878C30.4019 13.4526 30.3186 13.4849 30.2169 13.4849H25.6104C25.6104 13.4849 25.6104 13.4988 25.6104 13.5266C25.6104 13.5543 25.6104 13.5774 25.6104 13.5959C25.6197 13.9197 25.6798 14.2203 25.7908 14.4978C25.911 14.766 26.0822 14.9834 26.3042 15.1499C26.5354 15.3164 26.8083 15.3997 27.1228 15.3997C27.3818 15.3997 27.5992 15.3627 27.7749 15.2887C27.9506 15.2054 28.094 15.1129 28.205 15.0112C28.316 14.9094 28.3946 14.8262 28.4409 14.7614C28.5241 14.6504 28.5889 14.5857 28.6351 14.5672C28.6906 14.5394 28.7693 14.5255 28.871 14.5255H30.0642C30.1567 14.5255 30.2307 14.5533 30.2862 14.6088C30.351 14.6643 30.3787 14.7337 30.3695 14.8169C30.3602 14.9649 30.2816 15.1453 30.1336 15.358C29.9949 15.5708 29.7914 15.7789 29.5231 15.9824C29.2549 16.1859 28.9173 16.357 28.5103 16.4958C28.1125 16.6253 27.6547 16.69 27.1367 16.69ZM25.6104 12.3194H28.6768V12.2778C28.6768 11.9171 28.6166 11.6026 28.4964 11.3343C28.3761 11.0661 28.2004 10.8533 27.9691 10.6961C27.7379 10.5388 27.4604 10.4602 27.1367 10.4602C26.8129 10.4602 26.5354 10.5388 26.3042 10.6961C26.0729 10.8533 25.8972 11.0661 25.7769 11.3343C25.6659 11.6026 25.6104 11.9171 25.6104 12.2778V12.3194ZM35.0057 16.69C33.979 16.69 33.165 16.394 32.5638 15.802C31.9625 15.21 31.6388 14.3683 31.5925 13.2768C31.5833 13.1843 31.5787 13.0687 31.5787 12.9299C31.5787 12.7819 31.5833 12.6663 31.5925 12.5831C31.6295 11.8893 31.7868 11.2881 32.0643 10.7793C32.351 10.2706 32.7441 9.8821 33.2436 9.61386C33.7431 9.33636 34.3305 9.19761 35.0057 9.19761C35.755 9.19761 36.384 9.35486 36.8927 9.66935C37.4015 9.9746 37.7853 10.4047 38.0443 10.9597C38.3033 11.5055 38.4328 12.1391 38.4328 12.8606V13.1519C38.4328 13.2444 38.4005 13.3231 38.3357 13.3878C38.271 13.4526 38.1877 13.4849 38.086 13.4849H33.4795C33.4795 13.4849 33.4795 13.4988 33.4795 13.5266C33.4795 13.5543 33.4795 13.5774 33.4795 13.5959C33.4888 13.9197 33.5489 14.2203 33.6599 14.4978C33.7801 14.766 33.9513 14.9834 34.1733 15.1499C34.4045 15.3164 34.6774 15.3997 34.9919 15.3997C35.2509 15.3997 35.4682 15.3627 35.644 15.2887C35.8197 15.2054 35.9631 15.1129 36.0741 15.0112C36.1851 14.9094 36.2637 14.8262 36.31 14.7614C36.3932 14.6504 36.458 14.5857 36.5042 14.5672C36.5597 14.5394 36.6383 14.5255 36.7401 14.5255H37.9333C38.0258 14.5255 38.0998 14.5533 38.1553 14.6088C38.2201 14.6643 38.2478 14.7337 38.2386 14.8169C38.2293 14.9649 38.1507 15.1453 38.0027 15.358C37.864 15.5708 37.6605 15.7789 37.3922 15.9824C37.124 16.1859 36.7863 16.357 36.3794 16.4958C35.9816 16.6253 35.5237 16.69 35.0057 16.69ZM33.4795 12.3194H36.5459V12.2778C36.5459 11.9171 36.4857 11.6026 36.3655 11.3343C36.2452 11.0661 36.0695 10.8533 35.8382 10.6961C35.607 10.5388 35.3295 10.4602 35.0057 10.4602C34.682 10.4602 34.4045 10.5388 34.1733 10.6961C33.942 10.8533 33.7663 11.0661 33.646 11.3343C33.535 11.6026 33.4795 11.9171 33.4795 12.2778V12.3194Z" fill="#DE848B"/>
</svg>
