<svg width="560" height="270" viewBox="0 0 560 270" fill="none" xmlns="http://www.w3.org/2000/svg">
<path d="M74.82 179.22C55.97 179.22 38.57 165.3 38.57 138.62C38.57 111.65 55.97 98.0201 74.82 98.0201C93.67 98.0201 111.07 111.65 111.07 138.62C111.07 165.59 93.67 179.22 74.82 179.22ZM74.82 62.93C32.19 62.93 0 94.5401 0 138.62C0 182.41 32.19 214.31 74.82 214.31C117.45 214.31 149.64 182.41 149.64 138.62C149.64 94.5401 117.45 62.93 74.82 62.93Z" fill="#DE848B"/>
<path d="M204.5 209.96L231.07 0H192.5L165.93 209.96H204.5Z" fill="#DE848B"/>
<path d="M243.999 217.79C248.059 245.05 274.159 269.41 313.309 269.41C366.959 269.41 388.129 233.74 388.129 194.59V67.2801H351.009V84.1001C346.079 74.5301 333.029 64.6701 310.409 64.6701C271.259 64.6701 243.999 96.5701 243.999 134.27C243.999 174.29 272.419 203.58 310.409 203.58C330.999 203.58 344.339 194.59 350.139 185.31V195.75C350.139 223.3 336.509 235.48 312.149 235.48C293.879 235.48 281.409 224.17 278.799 208.51L243.999 217.79ZM317.079 170.52C297.069 170.52 282.859 156.6 282.859 134.27C282.859 112.23 297.939 98.3101 317.079 98.3101C335.639 98.3101 350.719 112.23 350.719 134.27C350.719 156.31 336.799 170.52 317.079 170.52Z" fill="#DE848B"/>
<path d="M484.376 179.22C465.526 179.22 448.126 165.3 448.126 138.62C448.126 111.65 465.526 98.0201 484.376 98.0201C503.226 98.0201 520.626 111.65 520.626 138.62C520.626 165.59 503.226 179.22 484.376 179.22ZM484.376 62.93C441.746 62.93 409.556 94.5401 409.556 138.62C409.556 182.41 441.746 214.31 484.376 214.31C527.006 214.31 559.196 182.41 559.196 138.62C559.196 94.5401 527.006 62.93 484.376 62.93Z" fill="#DE848B"/>
<path d="M534.5 213.156C534.5 213.156 534.5 201.672 534.5 195.973C534.5 195.973 546.313 183.814 551.231 174C560.5 155.5 559.14 138.022 559.14 138.022C559.89 138.022 559.74 213.156 559.74 213.156H534.5Z" fill="#DE848B"/>
<path d="M230.235 6.60006L231.07 0H192.5L191.665 6.60006H230.235Z" fill="#DE848B"/>
</svg>
